<svg role="img" viewBox="0 0 24 24" xmlns="http://www.w3.org/2000/svg"><path fill="#107C10" d="M4.102 21.033A11.947 11.947 0 0 0 12 24a11.96 11.96 0 0 0 7.902-2.967c1.877-1.912-4.316-8.709-7.902-11.417-3.582 2.708-9.779 9.505-7.898 11.417zm11.504-14.2A8.137 8.137 0 0 1 18.614 4.2c.488-.258 2.363-.09 3.293.587A11.904 11.904 0 0 0 12.004 0a11.9 11.9 0 0 0-9.9 4.79c.93-.676 2.809-.845 3.293-.586a8.13 8.13 0 0 1 3.007 2.63c1.088-.872 2.41-1.53 3.6-1.53 1.19 0 2.514.658 3.602 1.53zM1.477 6.137c-2.022 2.921-1.98 9.85.497 13.56 1.488-2.075 4.428-5.676 7.022-8.42C6.508 8.79 3.392 6.988 1.477 6.138zm21.046 0c-1.915.852-5.031 2.654-7.52 5.14 2.598 2.744 5.534 6.345 7.022 8.42 2.478-3.71 2.52-10.638.498-13.56z"/></svg>