<svg xmlns="http://www.w3.org/2000/svg" viewBox="0 0 886 170" width="886" height="170">
<g fill="#5A8C6F" fill-rule="evenodd">
  <path d="M 841.10 12.20 L 840.60 12.80 L 840.50 14.50 L 840.80 14.90 L 841.70 15.20 L 844.70 15.10 L 845.30 15.30 L 845.70 15.80 L 845.80 27.80 L 846.60 28.60 L 848.60 28.60 L 849.40 27.60 L 849.60 15.70 L 850.10 15.20 L 850.80 15.00 L 853.60 15.10 L 854.40 14.80 L 854.60 14.50 L 854.60 12.60 L 854.30 12.30 L 853.40 12.10 Z"/>
  <path d="M 639.40 17.00 L 633.30 14.10 L 632.10 13.90 L 630.30 13.20 L 627.80 12.90 L 625.40 12.30 L 620.80 12.10 L 582.50 12.10 L 581.70 12.70 L 581.00 17.20 L 580.30 19.00 L 580.00 21.40 L 579.30 23.10 L 579.20 24.70 L 578.50 27.50 L 578.00 31.10 L 577.40 32.90 L 576.80 36.30 L 576.30 37.50 L 576.00 40.00 L 575.40 41.90 L 574.90 45.80 L 574.20 48.00 L 573.90 50.20 L 573.30 51.80 L 573.10 53.80 L 572.50 55.80 L 571.90 60.30 L 571.40 61.90 L 571.00 64.60 L 570.20 66.60 L 570.10 68.50 L 568.30 76.20 L 568.00 78.70 L 567.40 80.30 L 567.00 83.00 L 566.40 84.70 L 566.00 88.50 L 565.40 90.60 L 565.00 93.40 L 564.40 94.90 L 563.50 98.90 L 563.40 100.50 L 562.10 107.30 L 561.20 109.80 L 559.00 122.30 L 558.20 124.60 L 558.10 126.10 L 557.40 128.90 L 557.30 130.40 L 555.90 137.40 L 555.20 139.00 L 553.90 146.40 L 553.20 149.00 L 553.00 151.10 L 552.30 153.10 L 551.50 157.50 L 551.80 157.80 L 552.60 158.00 L 578.60 157.90 L 579.10 157.60 L 579.90 155.60 L 580.20 153.10 L 580.80 151.20 L 582.00 145.40 L 582.10 143.90 L 582.90 141.30 L 583.20 138.90 L 583.80 137.30 L 584.30 133.50 L 585.10 130.20 L 585.20 128.60 L 585.80 127.20 L 586.30 123.80 L 586.90 122.30 L 587.40 118.70 L 588.00 116.50 L 588.10 114.60 L 588.90 112.30 L 589.30 109.50 L 589.80 109.10 L 604.90 108.90 L 611.50 108.00 L 616.00 106.90 L 619.70 105.20 L 621.30 104.80 L 623.30 103.90 L 627.50 101.20 L 631.50 97.70 L 636.00 92.30 L 639.00 87.30 L 641.00 81.80 L 641.80 80.50 L 641.90 79.60 L 642.40 78.40 L 643.10 74.70 L 643.90 72.30 L 644.10 70.60 L 644.70 69.30 L 645.10 66.60 L 645.60 65.20 L 646.00 62.00 L 646.90 58.30 L 647.00 56.70 L 647.80 54.80 L 648.00 52.90 L 648.50 51.30 L 649.80 39.50 L 649.50 33.50 L 648.80 29.70 L 647.90 27.00 L 645.70 23.00 L 643.50 20.20 Z M 617.40 35.00 L 618.30 35.60 L 620.10 37.50 L 620.90 38.90 L 621.20 40.60 L 621.30 44.40 L 621.00 47.80 L 620.20 50.00 L 619.80 53.20 L 619.10 54.90 L 618.90 57.30 L 618.30 59.70 L 617.90 63.10 L 617.20 65.20 L 617.00 67.40 L 616.20 69.00 L 615.90 71.50 L 614.00 78.20 L 613.40 79.00 L 612.30 81.40 L 611.20 82.90 L 609.00 85.00 L 607.30 86.10 L 605.30 86.70 L 601.60 87.10 L 594.70 87.00 L 594.30 86.70 L 594.20 86.20 L 594.90 83.90 L 595.10 81.60 L 595.90 79.50 L 596.20 76.90 L 596.90 74.40 L 597.20 71.50 L 597.80 69.50 L 598.10 67.00 L 599.00 64.40 L 600.20 56.80 L 600.80 55.20 L 601.00 52.90 L 601.90 50.40 L 602.20 47.60 L 603.00 44.40 L 603.10 42.80 L 603.90 40.40 L 604.00 38.70 L 604.90 36.80 L 605.20 34.80 L 605.70 34.30 L 606.80 34.20 L 614.30 34.30 Z"/>
  <path d="M 415.60 12.10 L 415.00 12.80 L 414.80 14.20 L 414.20 15.90 L 414.10 17.30 L 413.00 22.50 L 412.90 24.40 L 412.30 26.00 L 411.90 28.60 L 411.20 30.50 L 410.00 36.70 L 409.80 39.10 L 409.20 40.90 L 408.90 43.30 L 408.10 45.70 L 407.10 50.90 L 406.90 53.20 L 406.20 55.70 L 405.90 58.50 L 405.10 60.60 L 404.10 66.00 L 403.90 68.50 L 403.20 70.50 L 402.90 73.00 L 402.10 74.70 L 400.80 83.00 L 400.20 84.90 L 400.00 87.30 L 399.20 89.40 L 397.90 97.30 L 397.20 99.40 L 396.80 102.20 L 396.10 103.90 L 395.90 106.20 L 395.30 108.00 L 394.00 116.30 L 393.20 118.20 L 393.00 120.20 L 392.10 123.60 L 391.90 126.10 L 391.20 128.70 L 391.00 130.90 L 390.20 132.90 L 390.00 135.00 L 389.30 137.50 L 388.80 141.00 L 388.20 142.90 L 388.00 145.20 L 387.10 147.70 L 387.00 149.20 L 386.10 153.00 L 386.00 154.70 L 385.30 157.30 L 385.90 157.90 L 448.50 158.00 L 449.30 157.40 L 449.70 156.00 L 450.40 151.00 L 452.90 140.30 L 453.50 136.90 L 453.30 135.70 L 452.40 135.40 L 418.90 135.60 L 418.20 135.20 L 418.00 134.20 L 418.60 132.40 L 420.30 122.80 L 421.70 117.30 L 422.90 109.90 L 423.90 106.20 L 424.00 104.70 L 424.70 102.30 L 426.30 93.60 L 426.90 93.20 L 455.10 93.20 L 455.70 92.40 L 457.10 83.60 L 458.00 81.20 L 458.20 79.50 L 459.00 76.40 L 459.30 73.50 L 459.80 72.00 L 459.80 71.50 L 459.40 71.00 L 432.50 71.00 L 431.50 70.50 L 431.50 69.10 L 433.80 59.30 L 435.10 51.20 L 436.80 44.50 L 438.30 35.60 L 439.40 34.50 L 472.50 34.40 L 473.00 33.30 L 473.10 31.70 L 474.90 23.50 L 475.10 20.80 L 476.00 18.60 L 476.30 15.90 L 477.00 12.70 L 476.40 12.10 Z"/>
  <path d="M 315.00 12.30 L 314.60 12.70 L 314.30 13.60 L 313.90 16.50 L 313.20 18.70 L 311.00 31.40 L 310.20 33.90 L 308.70 42.30 L 305.90 54.60 L 304.90 60.90 L 304.20 62.80 L 302.00 74.90 L 301.30 76.70 L 299.00 89.00 L 298.20 91.10 L 296.90 97.80 L 296.80 99.30 L 296.10 101.90 L 296.00 103.40 L 295.20 105.70 L 295.00 107.40 L 294.10 110.90 L 293.80 113.50 L 291.30 124.90 L 289.90 133.30 L 289.10 135.80 L 287.90 141.70 L 287.80 143.20 L 287.10 145.60 L 287.00 147.30 L 286.20 149.70 L 284.70 157.30 L 285.40 157.90 L 308.50 158.00 L 309.90 157.90 L 310.70 157.30 L 312.90 146.40 L 313.10 144.50 L 314.00 141.30 L 316.10 129.60 L 316.80 127.40 L 317.20 124.60 L 317.80 122.40 L 319.20 113.80 L 320.90 107.20 L 322.40 97.80 L 322.90 96.50 L 323.60 93.20 L 324.00 90.00 L 325.00 85.40 L 325.20 82.90 L 325.80 81.30 L 326.70 76.10 L 327.40 70.90 L 327.80 70.60 L 328.20 70.90 L 328.50 71.60 L 331.20 96.30 L 332.00 100.50 L 332.30 104.10 L 333.10 108.70 L 333.50 113.90 L 334.10 117.30 L 334.30 121.20 L 335.00 124.40 L 335.30 128.30 L 335.90 130.80 L 336.60 137.50 L 337.10 140.20 L 337.30 143.40 L 338.00 146.70 L 338.30 150.30 L 339.00 153.30 L 339.40 157.30 L 340.20 157.90 L 364.60 157.90 L 365.30 157.40 L 365.80 155.80 L 366.10 152.90 L 366.80 150.40 L 368.10 142.50 L 368.90 140.50 L 369.10 138.40 L 369.70 136.40 L 370.20 132.70 L 370.90 130.10 L 371.10 127.90 L 371.80 126.20 L 372.10 123.70 L 372.80 121.50 L 374.20 113.10 L 374.90 111.40 L 375.20 108.80 L 375.90 107.30 L 376.10 104.80 L 376.90 101.40 L 377.10 99.40 L 377.80 97.40 L 378.10 95.10 L 378.90 92.50 L 379.10 90.10 L 379.80 87.50 L 380.20 83.90 L 380.80 82.40 L 381.10 79.90 L 381.80 78.30 L 382.00 75.90 L 382.80 73.10 L 383.20 70.00 L 383.80 68.30 L 384.10 65.70 L 385.00 63.30 L 385.10 61.20 L 385.80 58.40 L 386.10 55.70 L 386.70 54.00 L 387.00 51.70 L 387.90 49.20 L 388.10 46.80 L 388.60 45.10 L 389.10 41.60 L 389.80 39.30 L 390.00 37.00 L 390.80 34.80 L 392.00 27.60 L 392.90 24.20 L 393.00 22.80 L 393.90 20.40 L 394.10 17.90 L 394.60 16.40 L 395.10 12.60 L 394.40 12.10 L 369.70 12.10 L 369.20 12.50 L 368.90 14.30 L 368.20 16.10 L 368.00 18.70 L 367.20 21.90 L 367.00 24.40 L 366.20 26.90 L 366.00 29.30 L 365.30 30.90 L 364.80 34.40 L 364.30 35.80 L 364.00 39.00 L 363.20 41.90 L 363.00 44.30 L 362.10 46.80 L 362.00 48.40 L 361.30 50.90 L 360.90 54.30 L 360.20 57.00 L 360.00 59.30 L 359.10 61.80 L 359.00 63.80 L 358.30 66.50 L 357.00 75.50 L 356.10 78.00 L 356.00 80.20 L 355.20 84.10 L 355.00 87.30 L 354.30 90.40 L 354.10 94.20 L 353.80 95.30 L 353.20 95.50 L 352.70 94.80 L 352.30 92.80 L 351.00 78.80 L 350.20 75.60 L 349.90 71.60 L 349.20 68.50 L 348.00 57.20 L 347.10 53.90 L 346.90 50.60 L 346.20 47.60 L 346.10 45.40 L 345.20 40.10 L 344.90 36.50 L 344.10 33.40 L 343.90 30.40 L 343.20 27.40 L 341.90 16.80 L 341.20 14.40 L 341.00 12.70 L 340.50 12.10 L 315.70 12.10 Z"/>
  <path d="M 98.70 17.10 L 95.30 15.30 L 94.00 14.90 L 93.20 14.30 L 90.10 13.30 L 82.20 12.20 L 41.20 12.10 L 40.40 12.60 L 39.60 17.50 L 39.20 18.70 L 38.90 21.50 L 38.30 22.80 L 35.80 36.20 L 35.20 37.70 L 34.90 40.20 L 34.10 43.00 L 32.90 50.40 L 32.10 52.70 L 32.00 54.20 L 31.20 56.70 L 30.80 60.00 L 30.10 62.70 L 30.00 64.40 L 29.20 66.40 L 29.00 68.30 L 28.20 71.00 L 27.60 75.30 L 27.10 77.20 L 27.00 79.20 L 26.20 81.40 L 26.00 83.40 L 25.20 85.70 L 24.70 89.30 L 24.20 90.90 L 24.00 93.40 L 23.30 95.10 L 23.00 97.60 L 22.20 100.10 L 22.00 102.10 L 21.10 105.70 L 20.90 108.00 L 20.10 110.20 L 20.00 112.10 L 19.10 114.60 L 18.90 116.60 L 18.30 118.50 L 17.90 122.40 L 17.20 124.30 L 16.90 126.90 L 16.20 128.60 L 14.90 136.50 L 14.20 138.50 L 14.10 140.20 L 13.10 142.80 L 12.90 145.10 L 12.40 146.90 L 12.00 150.20 L 11.20 152.90 L 11.10 154.50 L 10.10 156.90 L 10.10 157.50 L 10.50 157.90 L 37.70 157.90 L 38.10 157.70 L 38.80 156.50 L 39.00 154.60 L 39.80 151.40 L 40.10 148.60 L 40.50 147.40 L 41.00 144.10 L 41.70 142.20 L 42.00 139.70 L 42.70 137.30 L 43.10 134.00 L 43.80 131.40 L 44.00 129.60 L 44.80 127.50 L 45.90 120.70 L 47.00 115.70 L 47.90 113.30 L 48.10 111.00 L 48.60 109.60 L 49.40 109.10 L 59.90 109.10 L 65.30 108.80 L 74.20 107.00 L 75.90 106.20 L 80.30 104.80 L 82.40 103.70 L 86.70 100.90 L 90.10 98.00 L 94.00 93.50 L 96.80 89.30 L 97.90 87.20 L 98.30 85.80 L 98.80 85.10 L 99.10 83.90 L 100.00 82.50 L 101.90 76.60 L 102.10 74.90 L 102.90 73.30 L 103.20 71.10 L 103.90 68.60 L 104.20 65.80 L 104.90 63.50 L 105.00 61.70 L 105.90 59.40 L 106.10 57.10 L 107.00 53.40 L 109.00 40.60 L 108.90 34.40 L 108.10 32.00 L 107.90 29.80 L 106.90 26.90 L 104.80 23.00 L 103.00 20.60 Z M 76.40 35.00 L 78.60 36.60 L 79.90 38.90 L 80.30 42.00 L 80.20 46.00 L 78.90 53.30 L 77.30 59.70 L 75.80 68.40 L 73.80 76.30 L 72.80 79.20 L 70.40 82.90 L 68.00 85.10 L 66.30 86.20 L 64.10 86.70 L 61.10 87.00 L 53.60 87.10 L 53.10 86.60 L 53.10 85.90 L 53.90 83.30 L 56.00 72.00 L 57.70 65.30 L 59.20 56.70 L 60.50 52.40 L 62.20 43.00 L 62.80 41.40 L 63.90 35.50 L 64.80 34.50 L 73.50 34.50 Z"/>
  <path d="M 876.30 12.50 L 875.80 12.10 L 874.90 12.00 L 873.60 12.10 L 872.90 12.60 L 870.80 16.40 L 870.30 16.90 L 868.00 21.50 L 867.60 21.90 L 867.10 21.90 L 866.10 21.00 L 864.90 18.70 L 864.10 17.80 L 861.90 13.80 L 860.90 12.50 L 860.20 12.10 L 858.00 12.30 L 857.60 12.70 L 857.60 27.80 L 857.80 28.20 L 858.50 28.60 L 860.50 28.60 L 861.00 28.00 L 861.10 23.70 L 860.90 20.40 L 861.30 19.60 L 861.80 19.60 L 864.10 24.00 L 865.80 26.40 L 866.80 27.20 L 867.60 27.20 L 868.00 26.90 L 869.00 25.50 L 871.10 21.50 L 872.20 20.00 L 872.60 19.80 L 873.00 20.40 L 872.90 27.80 L 873.60 28.60 L 875.50 28.60 L 875.90 28.40 L 876.40 27.70 L 876.50 14.40 Z"/>
  <path d="M 831.20 12.20 L 830.60 12.00 L 814.60 12.20 L 757.40 12.10 L 756.70 12.40 L 756.40 12.80 L 755.80 17.10 L 755.30 18.50 L 754.80 21.40 L 754.10 23.00 L 753.90 25.00 L 753.10 28.00 L 752.90 30.30 L 752.20 32.90 L 752.30 34.30 L 752.70 34.60 L 774.00 34.50 L 774.70 34.90 L 774.90 35.60 L 774.00 39.80 L 773.80 41.90 L 773.10 44.20 L 772.90 46.10 L 772.20 48.00 L 770.80 56.40 L 769.30 62.10 L 767.70 71.40 L 767.10 73.00 L 766.80 75.40 L 766.20 76.80 L 764.90 85.40 L 764.20 87.60 L 764.00 89.40 L 763.20 91.60 L 761.80 100.30 L 761.20 101.90 L 760.90 104.10 L 760.20 105.90 L 758.80 114.50 L 758.20 116.20 L 757.90 118.40 L 757.10 120.70 L 755.90 128.40 L 755.20 130.70 L 754.90 133.30 L 754.30 134.80 L 753.90 137.50 L 753.20 139.90 L 752.90 142.60 L 752.10 145.70 L 752.00 147.40 L 751.10 149.70 L 750.90 151.90 L 749.80 157.40 L 750.20 157.80 L 776.40 158.00 L 777.50 157.40 L 778.20 153.80 L 778.80 152.10 L 779.10 149.80 L 779.70 148.10 L 779.90 146.10 L 781.20 140.00 L 782.70 134.10 L 784.30 124.70 L 785.70 119.40 L 787.20 110.80 L 789.50 101.40 L 790.20 96.60 L 792.40 87.30 L 794.10 77.70 L 794.80 75.60 L 796.30 66.70 L 797.20 62.60 L 797.90 60.60 L 799.50 51.80 L 800.70 47.50 L 803.10 35.20 L 803.60 34.60 L 804.30 34.40 L 826.40 34.50 L 826.90 33.90 L 827.20 32.20 L 828.00 30.30 L 828.10 28.90 L 828.90 26.00 L 829.80 21.20 L 830.10 18.60 L 830.80 16.50 L 831.10 14.30 L 831.50 13.20 L 831.50 12.50 Z"/>
  <path d="M 129.70 12.00 L 128.90 12.70 L 128.40 14.70 L 127.90 18.50 L 127.20 20.60 L 126.90 23.30 L 126.20 25.00 L 125.90 27.70 L 125.30 29.80 L 125.00 33.10 L 124.20 35.50 L 123.90 38.10 L 123.20 39.60 L 122.10 46.70 L 121.30 49.60 L 121.00 52.40 L 120.10 54.60 L 120.00 56.40 L 119.30 59.10 L 118.90 62.40 L 118.20 64.60 L 118.10 66.30 L 117.20 68.40 L 116.90 71.40 L 116.40 73.00 L 115.90 76.60 L 115.20 78.80 L 115.00 81.10 L 114.20 82.70 L 113.90 85.40 L 113.40 86.80 L 113.00 90.30 L 112.30 92.90 L 112.00 95.30 L 111.20 97.10 L 111.00 99.60 L 110.40 101.70 L 109.10 109.60 L 108.20 111.70 L 108.10 113.50 L 107.40 115.80 L 106.00 124.10 L 105.30 125.70 L 105.00 128.50 L 104.30 130.60 L 104.10 133.50 L 103.30 136.60 L 103.10 138.50 L 102.30 140.70 L 102.00 143.40 L 101.40 145.10 L 101.00 148.30 L 100.00 153.10 L 99.30 154.80 L 98.90 157.60 L 99.50 158.00 L 126.40 157.80 L 126.80 157.40 L 127.20 154.90 L 127.80 153.40 L 128.10 150.40 L 128.90 147.30 L 129.00 145.70 L 129.80 143.60 L 130.20 140.90 L 130.80 139.20 L 131.10 136.80 L 131.70 134.50 L 132.10 131.00 L 132.90 128.60 L 133.30 125.90 L 133.90 124.60 L 134.00 122.90 L 134.70 120.00 L 135.20 116.10 L 135.90 114.40 L 136.20 111.80 L 136.90 110.20 L 137.10 108.00 L 137.80 105.50 L 138.10 102.80 L 138.90 100.10 L 139.20 97.80 L 139.90 96.10 L 140.20 93.80 L 140.60 93.40 L 141.30 93.20 L 160.40 93.10 L 161.30 93.20 L 161.80 93.60 L 161.90 94.80 L 161.20 96.40 L 160.80 99.20 L 160.10 101.00 L 158.80 109.30 L 158.20 110.80 L 157.90 113.50 L 157.00 115.80 L 155.90 122.90 L 155.20 124.90 L 154.80 128.10 L 154.10 129.80 L 153.80 132.30 L 153.00 135.70 L 152.90 137.50 L 152.20 139.80 L 151.90 142.40 L 151.20 143.70 L 150.80 146.60 L 150.20 148.80 L 149.80 152.40 L 149.30 153.80 L 149.00 156.30 L 148.60 157.60 L 149.10 157.90 L 175.80 157.90 L 176.50 157.40 L 176.90 155.70 L 177.00 154.00 L 178.20 147.50 L 179.70 142.00 L 181.20 133.60 L 182.90 126.40 L 184.20 118.80 L 185.90 112.50 L 187.30 104.10 L 188.80 98.30 L 190.20 89.90 L 191.90 83.30 L 193.40 74.80 L 195.00 68.50 L 196.30 60.60 L 196.80 59.30 L 197.10 56.80 L 198.00 54.20 L 198.70 50.00 L 199.80 45.50 L 200.10 42.90 L 200.90 40.60 L 203.10 28.70 L 203.90 26.40 L 205.20 18.60 L 206.60 12.50 L 205.80 12.10 L 179.60 12.00 L 178.70 12.30 L 178.10 13.70 L 176.90 21.40 L 176.20 23.70 L 175.90 26.00 L 175.30 27.70 L 173.90 36.10 L 173.30 37.70 L 172.90 40.30 L 172.10 42.90 L 171.60 46.50 L 171.00 48.60 L 170.90 50.30 L 170.30 52.10 L 170.00 54.50 L 169.20 56.70 L 168.60 61.40 L 168.00 63.70 L 167.90 65.40 L 167.20 67.50 L 166.70 70.40 L 166.30 70.80 L 165.60 71.00 L 145.60 71.00 L 145.00 70.40 L 145.00 69.40 L 145.90 67.20 L 146.10 65.10 L 146.70 63.30 L 147.10 59.70 L 147.80 57.40 L 148.10 55.00 L 148.80 53.50 L 149.10 50.80 L 149.70 49.10 L 150.10 45.90 L 150.80 43.30 L 151.00 41.10 L 151.80 39.30 L 152.10 36.50 L 152.70 34.60 L 152.90 32.30 L 153.80 28.40 L 154.10 25.90 L 154.90 24.20 L 155.10 21.80 L 155.80 19.40 L 156.40 14.70 L 156.90 12.70 L 156.50 12.20 Z"/>
  <path d="M 544.40 13.10 L 540.60 12.00 L 539.10 11.30 L 533.60 10.30 L 523.70 10.20 L 520.40 10.40 L 518.00 11.00 L 516.00 11.20 L 508.40 13.30 L 506.00 14.30 L 505.30 14.90 L 501.00 17.20 L 497.00 20.20 L 494.40 22.60 L 490.30 27.80 L 489.20 29.80 L 489.00 30.60 L 488.20 31.60 L 487.90 32.50 L 487.10 33.70 L 487.00 34.40 L 486.20 36.00 L 486.00 37.20 L 485.30 38.20 L 484.90 40.10 L 484.10 41.60 L 483.90 43.50 L 483.20 46.20 L 483.00 48.60 L 482.20 51.30 L 482.10 53.80 L 481.50 57.50 L 481.40 61.40 L 482.00 64.70 L 482.20 67.50 L 483.10 69.70 L 483.40 71.40 L 484.30 74.00 L 487.40 79.30 L 490.00 82.40 L 496.80 88.90 L 506.60 97.10 L 510.10 100.70 L 511.90 102.90 L 513.80 105.70 L 514.70 107.80 L 515.50 112.00 L 515.60 114.60 L 514.90 121.30 L 514.10 124.50 L 513.90 126.50 L 513.20 128.10 L 513.00 129.30 L 512.10 130.60 L 512.00 131.20 L 510.80 133.50 L 509.40 135.10 L 506.50 137.10 L 505.50 137.20 L 503.60 138.00 L 499.60 138.00 L 496.50 136.80 L 494.10 134.60 L 493.10 131.30 L 493.30 127.90 L 494.00 123.60 L 494.90 121.10 L 495.10 118.90 L 495.80 116.20 L 496.30 112.70 L 496.80 111.40 L 497.30 107.80 L 496.40 107.40 L 471.50 107.40 L 470.40 107.90 L 469.90 109.60 L 469.20 110.90 L 469.10 112.80 L 468.40 115.10 L 467.00 122.40 L 466.20 124.50 L 465.50 130.10 L 465.50 136.40 L 466.00 138.70 L 466.20 141.40 L 468.40 146.80 L 469.30 148.40 L 471.70 151.30 L 474.80 154.00 L 477.70 155.90 L 479.70 156.90 L 483.30 158.00 L 485.00 158.80 L 489.50 159.70 L 494.50 160.10 L 501.80 160.10 L 506.30 159.80 L 509.60 159.00 L 511.10 158.90 L 512.90 158.10 L 514.30 157.90 L 517.20 156.90 L 519.60 155.80 L 520.40 155.10 L 524.30 153.10 L 528.40 150.10 L 530.40 148.20 L 534.70 143.20 L 538.60 136.20 L 541.60 128.50 L 543.00 122.30 L 543.10 121.00 L 543.70 119.30 L 544.40 114.40 L 544.70 105.70 L 544.50 102.90 L 543.60 98.00 L 541.40 92.50 L 537.80 87.40 L 532.20 81.50 L 528.30 78.00 L 521.90 73.00 L 518.70 70.20 L 515.00 66.50 L 512.00 62.50 L 511.00 60.40 L 510.70 58.70 L 510.10 57.10 L 510.00 50.70 L 510.80 47.10 L 511.20 43.70 L 512.00 40.70 L 512.70 39.70 L 513.30 38.20 L 515.30 35.40 L 518.40 33.10 L 519.30 32.90 L 520.80 32.10 L 522.30 31.90 L 525.90 32.00 L 528.20 33.20 L 529.90 34.90 L 530.80 36.90 L 531.10 38.80 L 530.80 42.60 L 529.10 50.60 L 528.90 52.60 L 528.10 54.90 L 527.80 57.20 L 527.30 58.20 L 527.30 59.10 L 527.70 59.50 L 553.50 59.60 L 554.20 59.20 L 554.70 58.30 L 555.20 55.90 L 555.90 54.50 L 557.80 46.50 L 558.30 42.60 L 558.70 41.40 L 559.00 38.40 L 558.80 31.60 L 557.90 28.00 L 556.80 24.90 L 555.80 22.90 L 554.30 20.70 L 550.40 16.80 L 546.50 14.10 Z"/>
  <path d="M 277.20 13.20 L 275.80 12.90 L 274.60 12.30 L 273.30 12.10 L 271.20 11.20 L 266.60 10.40 L 263.90 10.20 L 253.10 10.30 L 250.50 11.00 L 247.70 11.30 L 246.10 12.00 L 244.00 12.30 L 240.70 13.30 L 238.70 14.20 L 237.90 14.90 L 236.70 15.30 L 233.60 17.10 L 232.60 18.10 L 229.70 20.10 L 227.20 22.40 L 224.00 25.70 L 221.30 29.20 L 218.90 34.10 L 218.20 35.00 L 217.40 36.80 L 216.00 41.50 L 215.20 42.80 L 215.00 44.30 L 214.40 45.80 L 213.10 53.20 L 212.20 55.80 L 212.00 58.00 L 211.40 59.90 L 211.30 61.60 L 210.30 65.70 L 210.00 68.10 L 209.30 70.00 L 209.00 72.20 L 208.40 74.00 L 208.20 76.30 L 207.20 80.80 L 207.10 82.20 L 206.30 84.60 L 206.10 86.40 L 205.40 88.80 L 204.10 97.00 L 203.30 99.00 L 200.90 112.20 L 199.50 117.80 L 198.40 124.60 L 198.00 129.50 L 198.20 136.20 L 199.40 142.40 L 200.30 144.60 L 203.20 149.50 L 206.60 153.00 L 209.20 154.80 L 212.90 156.80 L 219.60 159.10 L 223.30 159.80 L 228.40 160.10 L 233.80 160.10 L 240.50 159.60 L 244.30 158.80 L 245.60 158.20 L 250.30 156.80 L 251.30 156.20 L 252.50 155.90 L 253.50 155.10 L 257.50 152.90 L 258.40 152.00 L 261.50 149.80 L 264.50 146.90 L 268.90 141.30 L 272.00 135.60 L 273.20 132.10 L 273.80 131.10 L 274.10 129.70 L 274.80 128.40 L 276.20 121.90 L 276.80 120.30 L 277.10 118.10 L 277.80 116.30 L 279.20 108.10 L 279.80 106.30 L 280.10 103.90 L 280.80 102.00 L 282.20 93.60 L 282.70 92.30 L 283.10 89.50 L 283.80 87.40 L 284.10 84.50 L 284.50 83.20 L 285.20 78.70 L 286.70 73.00 L 288.30 63.60 L 288.70 62.40 L 289.10 59.70 L 289.80 57.70 L 290.00 55.80 L 290.50 54.40 L 291.10 49.70 L 291.80 46.60 L 292.50 38.70 L 291.90 32.30 L 290.90 28.00 L 290.10 25.90 L 287.80 21.70 L 286.80 20.30 L 283.40 17.00 L 279.30 14.20 Z M 258.30 32.10 L 260.60 33.10 L 261.90 34.10 L 263.10 35.40 L 263.80 36.80 L 264.20 39.60 L 264.00 44.90 L 263.10 49.60 L 263.00 51.50 L 262.20 53.90 L 262.00 56.30 L 261.30 58.00 L 260.90 61.40 L 260.20 64.10 L 260.00 66.40 L 259.20 69.00 L 259.00 71.50 L 258.10 73.40 L 257.90 75.50 L 257.20 78.10 L 256.90 81.20 L 256.20 83.70 L 256.10 85.70 L 255.10 88.10 L 254.90 90.30 L 254.40 91.80 L 253.90 95.40 L 253.20 98.20 L 253.10 100.30 L 252.20 102.50 L 251.80 105.60 L 251.20 107.60 L 251.00 110.20 L 250.30 112.80 L 250.10 115.10 L 249.20 117.10 L 249.00 119.20 L 248.20 121.70 L 247.90 124.10 L 247.30 125.60 L 247.00 127.40 L 246.10 128.60 L 245.90 129.60 L 245.20 130.70 L 245.00 131.50 L 244.00 133.10 L 242.10 135.20 L 239.40 136.90 L 236.50 137.90 L 232.20 137.90 L 229.50 137.00 L 227.80 135.90 L 226.50 134.50 L 225.60 131.00 L 225.70 127.60 L 226.20 123.90 L 227.00 120.50 L 227.10 118.80 L 227.80 117.10 L 228.30 113.90 L 228.90 112.10 L 230.20 103.80 L 230.90 102.10 L 231.20 99.80 L 231.80 98.20 L 232.20 95.10 L 232.90 92.40 L 233.10 89.80 L 233.80 88.20 L 234.20 84.90 L 235.00 82.40 L 235.10 80.70 L 235.90 77.40 L 236.10 75.00 L 236.80 73.30 L 237.10 70.60 L 237.90 68.40 L 238.90 63.40 L 239.20 60.70 L 239.90 58.90 L 240.10 56.80 L 240.90 55.00 L 242.20 47.10 L 242.90 45.30 L 243.10 43.60 L 243.90 42.40 L 244.20 40.60 L 245.00 38.70 L 248.00 35.10 L 251.30 33.10 L 252.50 32.90 L 254.20 32.20 Z"/>
  <path d="M 722.30 12.40 L 720.60 12.10 L 718.50 11.20 L 716.50 11.00 L 714.30 10.40 L 705.50 10.10 L 701.30 10.30 L 698.40 11.00 L 696.00 11.20 L 694.20 12.00 L 692.10 12.40 L 686.90 14.20 L 681.60 17.10 L 680.70 18.00 L 677.50 20.30 L 674.00 23.60 L 671.30 26.80 L 669.30 29.80 L 669.00 30.60 L 668.20 31.60 L 666.00 36.60 L 665.20 37.90 L 662.10 47.80 L 660.90 53.90 L 660.80 55.50 L 660.30 57.10 L 660.00 59.40 L 659.20 61.70 L 657.00 73.90 L 656.10 76.70 L 654.90 84.40 L 654.20 86.50 L 653.90 88.80 L 653.10 90.90 L 652.30 94.70 L 651.70 99.20 L 651.20 100.60 L 650.80 103.30 L 650.20 104.70 L 649.90 107.50 L 648.90 111.70 L 648.80 113.30 L 648.30 114.70 L 647.90 117.70 L 647.20 119.70 L 646.90 122.30 L 646.30 124.70 L 646.00 128.40 L 646.00 134.80 L 646.50 139.20 L 647.20 142.20 L 649.20 146.70 L 651.50 150.00 L 654.40 152.90 L 658.80 155.90 L 660.80 156.90 L 664.90 158.10 L 666.70 158.90 L 668.40 159.10 L 671.00 159.80 L 674.80 160.10 L 682.10 160.10 L 686.10 159.80 L 691.40 158.80 L 692.90 158.10 L 697.40 156.90 L 699.80 155.90 L 700.60 155.30 L 702.20 154.70 L 705.40 152.90 L 709.10 150.00 L 712.70 146.40 L 715.80 142.50 L 718.90 137.50 L 719.00 136.90 L 719.90 135.40 L 720.00 134.70 L 720.90 133.40 L 722.90 127.40 L 723.10 125.50 L 723.80 124.20 L 724.10 121.60 L 724.80 119.40 L 725.30 115.90 L 725.90 113.70 L 726.00 111.90 L 726.70 110.20 L 727.20 106.90 L 727.80 105.30 L 728.00 103.10 L 728.90 99.10 L 729.10 96.80 L 729.80 95.20 L 730.10 92.90 L 730.90 90.30 L 731.10 88.20 L 731.90 85.30 L 732.10 82.70 L 732.80 81.10 L 733.10 78.70 L 733.90 76.60 L 735.10 68.70 L 735.90 66.40 L 736.00 64.60 L 736.90 62.30 L 738.10 54.60 L 738.90 52.30 L 739.00 50.00 L 739.90 47.10 L 740.30 41.30 L 740.00 32.90 L 739.10 30.50 L 738.80 28.60 L 738.10 27.40 L 737.70 25.70 L 736.80 23.60 L 734.10 20.10 L 731.20 17.20 L 727.70 15.00 L 727.10 14.40 Z M 706.20 32.20 L 709.10 33.60 L 710.70 35.30 L 711.20 36.70 L 712.00 37.80 L 712.20 39.70 L 712.10 44.30 L 711.20 47.70 L 711.00 50.10 L 710.40 51.80 L 709.00 60.30 L 708.20 62.00 L 708.00 64.30 L 707.30 66.40 L 707.10 69.10 L 706.40 71.80 L 706.10 74.10 L 705.20 76.60 L 705.00 79.30 L 704.40 81.10 L 703.10 89.20 L 702.30 91.50 L 702.00 94.20 L 701.40 95.70 L 700.10 104.20 L 699.30 106.40 L 698.90 109.30 L 698.30 110.90 L 698.20 112.40 L 697.00 118.50 L 696.20 120.90 L 696.10 122.10 L 695.40 123.90 L 695.10 126.00 L 694.10 129.30 L 693.00 131.40 L 690.90 134.50 L 689.40 135.70 L 687.50 136.80 L 684.60 137.90 L 680.50 137.90 L 677.60 136.80 L 676.10 135.70 L 675.00 134.50 L 674.30 133.20 L 673.80 131.30 L 673.70 127.00 L 674.30 122.80 L 674.90 121.20 L 675.00 119.80 L 675.70 117.20 L 677.20 109.20 L 677.90 107.20 L 678.30 104.70 L 678.80 103.20 L 680.20 94.90 L 681.70 89.40 L 682.40 84.90 L 683.10 82.20 L 683.30 80.00 L 683.90 78.10 L 684.20 76.00 L 684.80 74.40 L 686.20 66.10 L 687.90 59.40 L 689.20 51.50 L 689.90 49.30 L 690.10 47.60 L 690.80 46.10 L 691.20 44.00 L 692.30 40.80 L 694.10 37.70 L 696.50 35.00 L 699.70 33.10 L 702.00 32.30 L 703.10 32.10 Z"/>
</g></svg>